<svg version="1.1" xmlns="http://www.w3.org/2000/svg" width="1024" height="1024">
<path d="M0 0 C337.92 0 675.84 0 1024 0 C1024 337.92 1024 675.84 1024 1024 C686.08 1024 348.16 1024 0 1024 C0 686.08 0 348.16 0 0 Z " fill="#FDFDFD" transform="translate(0,0)"/>
<path d="M0 0 C17.69 8.48 26.17 26.94 32.46 44.61 C35.12 52.32 37.25 60.14 39.21 68.05 C39.54 68.05 39.87 68.05 40.21 68.05 C40.5 66.77 40.79 65.49 41.09 64.17 C47.13 38.34 57.9 16.31 81.08 1.89 C87.1 -1.2 94.35 -0.83 100.64 1.11 C104.59 4.1 106.7 7.31 107.59 12.12 C108.24 24.3 101.19 34.45 93.48 43.17 C83.26 54.51 72.34 64.15 59.72 72.69 C56.07 75.15 56.07 75.15 54.21 79.05 C54.99 78.99 55.77 78.93 56.57 78.88 C79.3 77.99 104.27 83.63 122.21 98.05 C122.97 98.64 123.73 99.22 124.52 99.82 C128.44 103.55 129.65 106.67 129.93 112.13 C129.94 113.2 129.94 113.2 129.96 114.3 C129.98 115.35 129.98 115.35 130 116.42 C129.89 120.14 129.49 121.76 126.86 124.46 C120.43 128.32 113.53 129.03 106.21 128.05 C87.5 123.12 68.99 111.06 55.51 97.29 C53.34 94.85 53.34 94.85 50.21 94.05 C50.61 95.61 50.61 95.61 51.01 97.2 C51.37 98.61 51.73 100.02 52.08 101.43 C52.34 102.44 52.34 102.44 52.61 103.48 C53.16 105.67 53.69 107.86 54.21 110.05 C54.39 110.84 54.58 111.63 54.78 112.45 C56.12 118.57 56.56 124.42 56.52 130.68 C56.51 131.63 56.51 132.59 56.5 133.57 C56.28 146.48 54.64 159.09 47.21 170.05 C43.81 173.05 43.81 173.05 41.21 173.05 C41.57 188.27 42.69 203.04 45.21 218.05 C45.41 219.26 45.61 220.46 45.82 221.71 C46.04 223.01 46.26 224.31 46.48 225.64 C46.59 226.31 46.7 226.97 46.82 227.65 C47.37 230.93 47.92 234.21 48.49 237.48 C49.58 243.83 50.44 250.09 50.94 256.51 C51.2 258.96 51.65 261.27 52.2 263.67 C53.78 271.06 53.94 278.64 54.33 286.18 C54.42 287.72 54.51 289.26 54.59 290.81 C54.81 294.56 55.01 298.3 55.21 302.05 C57.08 296.79 58.59 291.58 59.74 286.11 C64.17 265.77 74.23 248.2 91.86 236.52 C95.2 234.47 98.66 232.73 102.21 231.05 C103.17 230.59 104.13 230.12 105.12 229.64 C111.12 226.94 117.33 225 123.64 223.18 C124.41 222.95 125.18 222.72 125.98 222.49 C130.06 221.36 133.04 220.71 137.21 222.05 C137.21 222.71 137.21 223.37 137.21 224.05 C135.67 225.31 135.67 225.31 133.58 226.74 C128.04 230.78 124.11 235.21 120.82 241.23 C120.39 242.02 119.95 242.81 119.51 243.63 C118.29 245.89 117.1 248.17 115.92 250.45 C110.75 260.3 105.23 268.34 97.21 276.05 C96.59 276.68 95.97 277.3 95.33 277.95 C90.31 282.72 84.39 286.3 78.55 289.97 C67.97 296.22 67.97 296.22 60.96 305.93 C60.24 307.51 60.24 307.51 59.52 309.12 C59.08 310.09 58.65 311.05 58.21 312.05 C57.48 313.32 56.75 314.6 56.02 315.86 C52.5 322.92 51.82 331.37 50.53 339.09 C48.98 348.13 46.65 356.52 43.21 365.05 C42.95 365.68 42.7 366.32 42.44 366.97 C38.3 377.28 33.15 386.67 27.21 396.05 C21.46 395.3 21.46 395.3 19.21 393.05 C19.76 392.24 20.32 391.42 20.89 390.59 C31.87 374.24 39.21 356.78 43.46 337.55 C43.62 336.83 43.78 336.11 43.95 335.36 C46.59 322.58 46.48 309.19 46.52 296.18 C46.52 295.41 46.52 294.64 46.53 293.84 C46.53 277.02 44.71 260.66 42.21 244.05 C42.03 242.84 41.84 241.63 41.66 240.38 C40.82 234.84 39.96 229.31 39.09 223.77 C36.45 206.76 35.96 190.28 36.21 173.05 C34.82 172.65 34.82 172.65 33.41 172.25 C30.29 171.08 29.07 170.38 27.02 167.86 C26.55 167.31 26.08 166.76 25.6 166.2 C21.68 160.17 20.68 155.17 20.77 148.11 C20.78 147.28 20.78 146.45 20.79 145.59 C21.27 127.48 29.18 110.46 36.21 94.05 C32.25 96.3 28.77 98.9 25.21 101.74 C7.93 115.21 -11.51 126.27 -34.04 123.8 C-40.48 122.58 -45.27 118.57 -49.79 114.05 C-50.6 107.41 -50.7 100.62 -47.18 94.76 C-37.81 83.22 -21.68 80.7 -7.79 79.05 C-4.85 78.89 -1.92 78.86 1.02 78.86 C1.83 78.86 2.65 78.86 3.49 78.86 C12.14 78.93 20.64 79.9 29.21 81.05 C28.15 80.58 28.15 80.58 27.07 80.09 C4.09 69.23 -15.77 51.47 -25.17 27.55 C-26.78 18.51 -26.6 11.98 -21.59 4.11 C-15.94 -2.36 -7.82 -2.66 0 0 Z " fill="#050505" transform="translate(450.79296875,355.94921875)"/>
<path d="M0 0 C2.3 2.3 2.3 2.95 2.56 6.06 C2.56 9.77 2.56 9.77 4 11 C4.33 10.34 4.66 9.68 5 9 C5.66 9 6.32 9 7 9 C3.13 36.43 -4.05 59.54 -19 83 C-24.75 82.25 -24.75 82.25 -27 80 C-26.16 78.78 -26.16 78.78 -25.31 77.54 C-9.74 54.34 -0.84 27.98 0 0 Z " fill="#0D0E0D" transform="translate(497,669)"/>
<path d="M0 0 C0.33 0 0.66 0 1 0 C1 7.92 1 15.84 1 24 C1.66 24 2.32 24 3 24 C3.33 24.99 3.66 25.98 4 27 C4.66 26.01 5.32 25.02 6 24 C6.24 25.75 6.24 25.75 6.48 27.54 C8.19 39.88 10.15 52.16 12.29 64.43 C13.4 70.92 14.31 77.33 14.77 83.9 C14.88 86.06 14.88 86.06 16 88 C16.13 90.67 16.04 93.32 16 96 C15.67 94.68 15.34 93.36 15 92 C14.34 92 13.68 92 13 92 C12.34 95.96 11.68 99.92 11 104 C10.67 104 10.34 104 10 104 C9.9 103.14 9.8 102.27 9.7 101.38 C7.97 86.58 6.22 71.79 3.88 57.06 C0.86 37.82 -0.28 19.52 0 0 Z " fill="#1A1918" transform="translate(487,529)"/>
<path d="M0 0 C3.7 2.03 5.65 3.48 8 7 C8.43 12.3 8.52 15.75 5 20 C2.12 22.32 0.24 22.96 -3.44 23.5 C-8.17 22.84 -9.66 21.34 -13 18 C-14.74 14.52 -14.59 10.8 -14 7 C-10.6 0.86 -6.8 -0.57 0 0 Z " fill="#090909" transform="translate(406,617)"/>
<path d="M0 0 C2.66 0.64 3.88 1.16 5.76 3.11 C7.88 7.21 8.72 10.1 7.57 14.61 C5.8 17.63 3.75 20.03 0.57 21.61 C-8.31 22.04 -8.31 22.04 -11.43 19.61 C-13.69 16.79 -14.4 14.81 -14.99 11.24 C-14.35 7.08 -13.35 4.97 -10.48 1.95 C-7.08 -0.27 -3.97 -0.28 0 0 Z " fill="#080808" transform="translate(648.4296875,514.38671875)"/>
<path d="M0 0 C5.58 3.16 5.58 3.16 7 6 C7.68 11.86 7.68 11.86 5.95 14.76 C3.22 18.09 1.49 19.83 -2.81 20.31 C-6.73 19.93 -8.21 18.71 -11 16 C-12.75 12.5 -12.69 8.81 -12 5 C-9.1 0.62 -5.11 -0.96 0 0 Z " fill="#0B0C0B" transform="translate(383,520)"/>
<path d="M0 0 C4.95 0 9.9 0 15 0 C15 4.62 15 9.24 15 14 C10.05 14 5.1 14 0 14 C0 9.38 0 4.76 0 0 Z " fill="#717170" transform="translate(501,745)"/>
<path d="M0 0 C3.77 0.71 5.44 1.7 8 4.56 C8.72 8.33 8.3 10.02 6.44 13.38 C3.21 16.27 1.31 16.71 -3 16.56 C-6.42 14.16 -7.77 12.68 -8.62 8.56 C-7.58 3.56 -5.04 0.94 0 0 Z " fill="#0F100F" transform="translate(376,335.4375)"/>
<path d="M0 0 C2.38 1.56 2.38 1.56 4 4 C4.56 7.5 4.56 7.5 4 11 C1.58 13.7 -0.01 14.81 -3.56 15.5 C-6.92 14.81 -8.05 13.82 -10 11 C-10.57 7.03 -10.62 4.94 -8.38 1.56 C-5.28 -0.47 -3.64 -0.61 0 0 Z " fill="#0F0F0E" transform="translate(658,286)"/>
</svg>
